<svg xmlns="http://www.w3.org/2000/svg" xmlns:xlink="http://www.w3.org/1999/xlink" width="168" height="80" viewBox="0 0 168 80"><style>rect{shape-rendering:crispEdges}text{dominant-baseline:text-before-edge;white-space:pre;font:14px monospace;fill:#bbb}</style><rect width="100%" height="100%" x="0" y="0" style="fill:#000"/><text x="0" y="0">$</text><text x="16" y="0">f</text><text x="24" y="0">q</text><text x="40" y="0">-</text><text x="48" y="0">n</text><text x="64" y="0">&apos;</text><text x="72" y="0">&quot;</text><text x="80" y="0">h</text><text x="88" y="0">e</text><text x="96" y="0">l</text><text x="104" y="0">l</text><text x="112" y="0">o</text><text x="120" y="0">&quot;</text><text x="128" y="0">&apos;</text><text x="0" y="16" style="fill:#0b0">&quot;</text><text x="8" y="16" style="fill:#0b0">h</text><text x="16" y="16" style="fill:#0b0">e</text><text x="24" y="16" style="fill:#0b0">l</text><text x="32" y="16" style="fill:#0b0">l</text><text x="40" y="16" style="fill:#0b0">o</text><text x="48" y="16" style="fill:#0b0">&quot;</text><text x="0" y="48">$</text><text x="16" y="48">f</text><text x="24" y="48">q</text><text x="40" y="48">-</text><text x="48" y="48">n</text><text x="64" y="48">&apos;</text><text x="72" y="48">&quot;</text><text x="80" y="48">h</text><text x="88" y="48">e</text><text x="96" y="48">l</text><text x="104" y="48">l</text><text x="112" y="48">o</text><text x="120" y="48">&quot;</text><text x="136" y="48">|</text><text x="152" y="48">d</text><text x="160" y="48">&apos;</text><text x="0" y="64" style="fill:#0b0">&quot;</text><text x="8" y="64" style="fill:#0b0">h</text><text x="16" y="64" style="fill:#0b0">e</text><text x="24" y="64" style="fill:#0b0">l</text><text x="32" y="64" style="fill:#0b0">l</text><text x="40" y="64" style="fill:#0b0">o</text><text x="48" y="64" style="fill:#0b0">&quot;</text></svg>